# xmcd
#
# Track frame offsets:
#	150
#	11550
#	28332
#	44417
#	61335
#	77490
#	92242
#	106612
#	118005
#	133955
#
# Disc length: 1924 seconds
#
# Revision: 0
# Processed by: cddbd v1.5.1PL0 Copyright (c) Steve Scherf et al.
# Submitted via: audiograbber 1.83.01
#
DISCID=8007820a
DTITLE=Ellis James - The Legend Continues
DYEAR=1900
DGENRE=
TTITLE0=Feel Right
TTITLE1=Since I Met You Baby
TTITLE2=Slow Hand
TTITLE3=Nothing Short Of Dying
TTITLE4=Love Is In The Air
TTITLE5=That's The Thing About Love
TTITLE6=At This Moment
TTITLE7=It Only Hurts When I Cry
TTITLE8=Tips Of My Fingers
TTITLE9=Treat Me Nice
EXTD=
EXTT0=
EXTT1=
EXTT2=
EXTT3=
EXTT4=
EXTT5=
EXTT6=
EXTT7=
EXTT8=
EXTT9=
PLAYORDER=
